<svg width="1024" height="1024" viewBox="0 0 1024 1024" fill="none" xmlns="http://www.w3.org/2000/svg">
<rect width="1024" height="1024" rx="220" fill="#191919"/>
<rect x="785.785" y="622.784" width="178" height="508" rx="89" transform="rotate(90 785.785 622.784)" stroke="#EABE2F" stroke-width="70"/>
<path d="M311.078 274.715C332.241 209.583 402.196 173.94 467.327 195.103C532.459 216.265 568.103 286.22 546.94 351.352L470.119 587.784H396.516L480.366 329.72C489.582 301.356 474.06 270.892 445.696 261.676C417.333 252.46 386.868 267.983 377.652 296.347L275.677 610.195C266.461 638.559 281.983 669.023 310.347 678.239C333.517 685.768 358.089 676.787 371.334 657.784H447.374L444.965 665.2C423.802 730.332 353.847 765.975 288.716 744.812C223.584 723.65 187.94 653.695 209.103 588.563L311.078 274.715Z" fill="#E6E6E6"/>
</svg>
