<svg width="14" height="17" viewBox="0 0 14 17" fill="none" xmlns="http://www.w3.org/2000/svg">
<path d="M0.884766 9.88672V14.6867C0.884766 15.1068 0.884766 15.3168 0.966511 15.4772C1.03842 15.6183 1.15315 15.7331 1.29427 15.805C1.45471 15.8867 1.66473 15.8867 2.08477 15.8867H11.6848C12.1048 15.8867 12.3148 15.8867 12.4753 15.805C12.6164 15.7331 12.7311 15.6183 12.803 15.4772C12.8848 15.3168 12.8848 15.1068 12.8848 14.6867V9.88672M0.884766 9.88672H12.8848M0.884766 9.88672V9.73672C0.884766 8.4766 0.884766 7.84654 1.13 7.36524C1.34572 6.94188 1.68992 6.59767 2.11329 6.38195C2.59459 6.13672 3.22465 6.13672 4.48477 6.13672H9.28477C10.5449 6.13672 11.1749 6.13672 11.6562 6.38195C12.0796 6.59767 12.4238 6.94188 12.6395 7.36524C12.8848 7.84654 12.8848 8.4766 12.8848 9.73672V9.88672M5.00977 6.13672V2.76172C5.00977 1.72619 5.84923 0.886719 6.88477 0.886719C7.9203 0.886719 8.75977 1.72619 8.75977 2.76172V6.13672" stroke="#F5F5F5" stroke-width="1.77083" stroke-linecap="round" stroke-linejoin="round"/>
</svg>
