<svg width="24" height="24" viewBox="0 0 24 24" fill="none" xmlns="http://www.w3.org/2000/svg">
<path fill-rule="evenodd" clip-rule="evenodd" d="M18 4C18.5523 4 19 4.44772 19 5V6H20C21.1046 6 22 6.89543 22 8V18C22 19.1046 21.1046 20 20 20H4C2.89543 20 2 19.1046 2 18V8C2 6.89543 2.89543 6 4 6H5V5C5 4.44772 5.44772 4 6 4C6.55228 4 7 4.44772 7 5V6H11V5C11 4.44772 11.4477 4 12 4C12.5523 4 13 4.44772 13 5V6H17V5C17 4.44772 17.4477 4 18 4ZM5 14C4.44772 14 4 14.4477 4 15V17C4 17.5523 4.44772 18 5 18H7C7.55228 18 8 17.5523 8 17V15C8 14.4477 7.55228 14 7 14H5ZM11 14C10.4477 14 10 14.4477 10 15V17C10 17.5523 10.4477 18 11 18H13C13.5523 18 14 17.5523 14 17V15C14 14.4477 13.5523 14 13 14H11ZM17 14C16.4477 14 16 14.4477 16 15V17C16 17.5523 16.4477 18 17 18H19C19.5523 18 20 17.5523 20 17V15C20 14.4477 19.5523 14 19 14H17ZM5 8C4.44772 8 4 8.44772 4 9V11C4 11.5523 4.44772 12 5 12H7C7.55228 12 8 11.5523 8 11V9C8 8.44772 7.55228 8 7 8H5ZM11 8C10.4477 8 10 8.44772 10 9V11C10 11.5523 10.4477 12 11 12H13C13.5523 12 14 11.5523 14 11V9C14 8.44772 13.5523 8 13 8H11ZM17 8C16.4477 8 16 8.44772 16 9V11C16 11.5523 16.4477 12 17 12H19C19.5523 12 20 11.5523 20 11V9C20 8.44772 19.5523 8 19 8H17Z" fill="currentColor"/>
</svg>
