<svg width="14" height="17" viewBox="0 0 14 17" fill="none" xmlns="http://www.w3.org/2000/svg">
<path d="M6.88477 8.38672L3.6801 5.71616C3.20396 5.31938 2.96589 5.12099 2.79474 4.8778C2.6431 4.66232 2.53048 4.42187 2.46203 4.16743C2.38477 3.88026 2.38477 3.57036 2.38477 2.95057V0.886719M6.88477 8.38672L10.0894 5.71617C10.5656 5.31938 10.8036 5.12099 10.9748 4.8778C11.1264 4.66232 11.239 4.42187 11.3075 4.16743C11.3848 3.88026 11.3848 3.57036 11.3848 2.95057V0.886719M6.88477 8.38672L3.6801 11.0573C3.20396 11.4541 2.96589 11.6524 2.79474 11.8956C2.6431 12.1111 2.53048 12.3516 2.46203 12.606C2.38477 12.8932 2.38477 13.2031 2.38477 13.8229V15.8867M6.88477 8.38672L10.0894 11.0573C10.5656 11.4541 10.8036 11.6524 10.9748 11.8956C11.1264 12.1111 11.239 12.3516 11.3075 12.606C11.3848 12.8932 11.3848 13.2031 11.3848 13.8229V15.8867M0.884766 0.886719H12.8848M0.884766 15.8867H12.8848" stroke="#F5F5F5" stroke-width="1.77083" stroke-linecap="round" stroke-linejoin="round"/>
</svg>
