<svg width="19" height="18" viewBox="0 0 19 18" fill="none" xmlns="http://www.w3.org/2000/svg">
<path d="M8.50464 1.60744C8.70632 1.19886 8.80716 0.994579 8.94405 0.92931C9.06315 0.872522 9.20153 0.872522 9.32063 0.92931C9.45752 0.994579 9.55836 1.19886 9.76003 1.60744L11.6734 5.48366C11.7329 5.60428 11.7627 5.66459 11.8062 5.71141C11.8447 5.75287 11.8909 5.78647 11.9422 5.81033C12.0002 5.83728 12.0667 5.84701 12.1998 5.86646L16.4797 6.49203C16.9304 6.5579 17.1557 6.59084 17.26 6.70092C17.3507 6.79669 17.3934 6.92829 17.3761 7.05909C17.3563 7.20942 17.1931 7.36832 16.8669 7.68612L13.7711 10.7014C13.6746 10.7954 13.6263 10.8424 13.5952 10.8983C13.5676 10.9478 13.5499 11.0022 13.5431 11.0585C13.5354 11.122 13.5468 11.1884 13.5696 11.3212L14.3 15.5801C14.3771 16.0293 14.4156 16.2539 14.3432 16.3872C14.2802 16.5032 14.1683 16.5845 14.0385 16.6086C13.8894 16.6362 13.6877 16.5302 13.2843 16.318L9.45815 14.3059C9.33894 14.2432 9.27933 14.2118 9.21654 14.1995C9.16093 14.1886 9.10374 14.1886 9.04814 14.1995C8.98534 14.2118 8.92574 14.2432 8.80652 14.3059L4.98038 16.318C4.577 16.5302 4.37531 16.6362 4.22617 16.6086C4.09642 16.5845 3.98446 16.5032 3.92147 16.3872C3.84907 16.2539 3.8876 16.0293 3.96464 15.5801L4.6951 11.3212C4.71787 11.1884 4.72926 11.122 4.72155 11.0585C4.71473 11.0022 4.69705 10.9478 4.66948 10.8983C4.63834 10.8424 4.59009 10.7954 4.49359 10.7014L1.39781 7.68612C1.07153 7.36832 0.908387 7.20942 0.888535 7.05909C0.871262 6.92829 0.913934 6.79669 1.00467 6.70092C1.10896 6.59084 1.3343 6.5579 1.78499 6.49203L6.06485 5.86646C6.19795 5.84701 6.26449 5.83728 6.32245 5.81033C6.37377 5.78647 6.41997 5.75287 6.45849 5.71141C6.50199 5.66459 6.53176 5.60428 6.5913 5.48366L8.50464 1.60744Z" stroke="#F5F5F5" stroke-width="1.77083" stroke-linecap="round" stroke-linejoin="round"/>
</svg>
