<svg width="16" height="17" viewBox="0 0 16 17" fill="none" xmlns="http://www.w3.org/2000/svg">
<path d="M10.6348 3.88672V3.28672C10.6348 2.44664 10.6348 2.0266 10.4713 1.70573C10.3275 1.42349 10.098 1.19402 9.81575 1.05021C9.49488 0.886719 9.07484 0.886719 8.23477 0.886719H7.03477C6.19469 0.886719 5.77465 0.886719 5.45378 1.05021C5.17154 1.19402 4.94207 1.42349 4.79826 1.70573C4.63477 2.0266 4.63477 2.44664 4.63477 3.28672V3.88672M6.13477 8.01172V11.7617M9.13477 8.01172V11.7617M0.884766 3.88672H14.3848M12.8848 3.88672V12.2867C12.8848 13.5468 12.8848 14.1769 12.6395 14.6582C12.4238 15.0816 12.0796 15.4258 11.6562 15.6415C11.1749 15.8867 10.5449 15.8867 9.28477 15.8867H5.98477C4.72465 15.8867 4.09459 15.8867 3.61329 15.6415C3.18992 15.4258 2.84572 15.0816 2.63 14.6582C2.38477 14.1769 2.38477 13.5468 2.38477 12.2867V3.88672" stroke="#F5F5F5" stroke-width="1.77083" stroke-linecap="round" stroke-linejoin="round"/>
</svg>
